Coordinates
version=1
nRows=17
nColumns=24
inDegrees=yes

Units are S.I. units (second, meters, Newtons, ...)
Angles are in degrees.

endheader
time	pelvis_tilt	pelvis_list	pelvis_rotation	pelvis_tx	pelvis_ty	pelvis_tz	hip_flexion_r	hip_adduction_r	hip_rotation_r	knee_angle_r	ankle_angle_r	subtalar_angle_r	mtp_angle_r	hip_flexion_l	hip_adduction_l	hip_rotation_l	knee_angle_l	ankle_angle_l	subtalar_angle_l	mtp_angle_l	lumbar_extension	lumbar_bending	lumbar_rotation
      1.38300000	      2.31260474	      8.62396560	     -6.85924826	      0.21646524	      1.02056732	      0.25858392	     11.89141193	     -9.28522533	      2.68664318	    -65.63975998	      4.41924786	    -15.19773243	      0.61756983	      5.98493993	     13.41328827	     -0.47134521	    -10.11233380	     -0.90594563	    -20.03340944	      6.58652288	     -3.97382007	    -10.69483565	      8.09475305
      1.38716667	      2.30392537	      8.49699696	     -6.70538402	      0.22154761	      1.02131076	      0.25833445	     12.38677490	     -9.09478782	      2.64022900	    -65.22744346	      4.65262469	    -15.17537868	      0.49118950	      5.45808240	     13.34956706	     -0.15605525	     -9.77422577	     -0.82842561	    -20.11781284	      6.49692689	     -4.05180822	    -10.55796012	      7.69887375
      1.39133333	      2.26516360	      8.36559422	     -6.56348212	      0.22664733	      1.02197281	      0.25813864	     12.90477102	     -8.88734734	      2.61071717	    -64.76739154	      4.92231655	    -15.19499092	      0.44922714	      4.97882870	     13.25815344	      0.03030828	     -9.46003458	     -0.75259204	    -20.05081220	      6.46506542	     -4.06241920	    -10.41014420	      7.57851093
      1.39550000	      2.25355408	      8.22937296	     -6.40185730	      0.23171832	      1.02264649	      0.25790726	     13.37439953	     -8.68696468	      2.55488658	    -64.25308486	      5.15684197	    -15.18131168	      0.38963179	      4.46431611	     13.16952032	      0.28999337	     -9.13978273	     -0.66414630	    -20.03762265	      6.41803304	     -4.13041641	    -10.26078151	      7.31936898
      1.39966667	      2.27494034	      8.12444934	     -6.25625282	      0.23677462	      1.02330253	      0.25769524	     13.81472190	     -8.53158704	      2.50532262	    -63.71052639	      5.34435301	    -15.16914330	      0.27992954	      3.89887809	     13.11849481	      0.58039636	     -8.77214456	     -0.58743054	    -20.10383455	      6.32723776	     -4.22768955	    -10.16443347	      6.91529844
      1.40383333	      2.24934714	      8.00331203	     -6.09101166	      0.24183647	      1.02387586	      0.25747785	     14.28099701	     -8.35088519	      2.44521929	    -63.10999763	      5.54396418	    -15.17299355	      0.17119946	      3.39789160	     13.03636112	      0.83764046	     -8.43854622	     -0.51089472	    -20.11322469	      6.23247994	     -4.26816576	    -10.03765883	      6.64039615
      1.40800000	      2.20585954	      7.88111222	     -5.92628408	      0.24689832	      1.02439463	      0.25727667	     14.75596735	     -8.16746192	      2.38436752	    -62.46784075	      5.75839543	    -15.18559806	      0.13159539	      2.92771437	     12.94065992	      1.02942464	     -8.12202463	     -0.44207643	    -20.02647739	      6.19699591	     -4.28428717	     -9.89338299	      6.50036648
      1.41216667	      2.20793688	      7.77021683	     -5.74924774	      0.25192571	      1.02492140	      0.25706830	     15.16762854	     -8.00945521	      2.30647844	    -61.78028292	      5.89981367	    -15.20555160	      0.03316794	      2.39809321	     12.86623245	      1.31723065	     -7.78613726	     -0.34092130	    -20.05794379	      6.10802486	     -4.36311354	     -9.79590262	      6.08684253
      1.41633333	      2.16921931	      7.65087352	     -5.56637670	      0.25695985	      1.02536518	      0.25686958	     15.60685377	     -7.83689377	      2.22846076	    -61.04927555	      6.08806412	    -15.21414978	     -0.01836949	      1.93048094	     12.76746450	      1.53147970	     -7.48187106	     -0.27585211	    -19.99489337	      6.06043332	     -4.39041640	     -9.67182769	      5.90371019
      1.42050000	      2.15214397	      7.54763300	     -5.38339967	      0.26197681	      1.02578769	      0.25667302	     16.01563501	     -7.69096246	      2.14440553	    -60.28239912	      6.23751081	    -15.24184120	     -0.07218642	      1.43613787	     12.68645661	      1.76966677	     -7.16510157	     -0.19063503	    -19.95234407	      6.01147968	     -4.44320021	     -9.56271823	      5.63892847
      1.42466667	      2.16125502	      7.45776098	     -5.20766767	      0.26697342	      1.02618476	      0.25647644	     16.39289614	     -7.56921240	      2.06008349	    -59.48736527	      6.34113167	    -15.28514670	     -0.16545072	      0.90483866	     12.62320714	      2.04053606	     -6.82300922	     -0.09716890	    -19.98411795	      5.92437715	     -4.53032248	     -9.47530195	      5.22436911
      1.42883333	      2.10566000	      7.34642442	     -5.01357193	      0.27198637	      1.02648884	      0.25628949	     16.81076965	     -7.41368627	      1.97246288	    -58.63514168	      6.48240782	    -15.30438726	     -0.21308119	      0.46697235	     12.51960359	      2.25265212	     -6.53353583	     -0.02932081	    -19.91345958	      5.88018640	     -4.54045089	     -9.35575071	      5.04313977
      1.43300000	      2.10126370	      7.24704439	     -4.81697472	      0.27696397	      1.02681839	      0.25610509	     17.16210286	     -7.28551947	      1.87051660	    -57.74387546	      6.58177162	    -15.34206150	     -0.27169461	     -0.03024533	     12.43188059	      2.49364192	     -6.22798265	      0.05786295	    -19.87605459	      5.82669763	     -4.61355148	     -9.25887036	      4.74356531
      1.43716667	      2.07335030	      7.17861354	     -4.63775893	      0.28194517	      1.02702691	      0.25594385	     17.54742302	     -7.18835576	      1.79426179	    -56.84724445	      6.64890510	    -15.39451021	     -0.36628078	     -0.50697082	     12.37454447	      2.74896784	     -5.90363212	      0.15080372	    -19.89769276	      5.73821540	     -4.65680272	     -9.19623004	      4.33645472
      1.44133333	      2.05261841	      7.09864298	     -4.44751136	      0.28692278	      1.02723935	      0.25578823	     17.89812994	     -7.08516872	      1.70064595	    -55.89555360	      6.72936143	    -15.41497837	     -0.44928110	     -0.98061188	     12.29792606	      2.97629477	     -5.60155774	      0.23570514	    -19.86390599	      5.65949955	     -4.70600904	     -9.11674438	      4.06552505
      1.44550000	      2.02237840	      7.03181269	     -4.25725150	      0.29188501	      1.02737902	      0.25564043	     18.25199328	     -6.99698438	      1.61570093	    -54.92055758	      6.81845539	    -15.43687626	     -0.56913683	     -1.44063066	     12.23142884	      3.21044154	     -5.29673273	      0.28038277	    -19.84501088	      5.54155117	     -4.75360330	     -9.06254055	      3.73724887
      1.44966667	      1.95496072	      6.95048016	     -4.06648779	      0.29686915	      1.02744720	      0.25549347	     18.62428101	     -6.89426473	      1.52680351	    -53.89493736	      6.87288982	    -15.41161295	     -0.60602871	     -1.84181696	     12.14193420	      3.39159976	     -5.03868469	      0.39241503	    -19.76418608	      5.50776279	     -4.74241275	     -8.97219340	      3.60087314
